<svg style="object-fit:cover" id="my-svg" version="1" baseProfile="full" width="100%" height="100%" viewBox="0 0 1920 819" xmlns="http://www.w3.org/2000/svg"><rect width="1920" height="819" fill="#ffffff"/><defs><radialGradient id="radial-gradient" cx="0.5" cy="0.75" r="0.55"><stop offset="0%" stop-color="#ff932e70"/><stop offset="100%" stop-color="#ffbc4770"/></radialGradient></defs><path transform="scale(1, 1)" style="transform-origin:center" d="M 0,819 V 0,327 C 61.02970449239878,375.734954165006 122.05940898479756,424.46990833001195 170,428 C 217.94059101520244,431.53009166998805 252.79206855320848,389.85532084495816 298,341 C 343.2079314467915,292.14467915504184 398.77231680236866,236.10880829015545 460,234 C 521.2276831976313,231.89119170984455 588.118664237317,283.7094459944201 642,282 C 695.881335762683,280.2905540055799 736.7530262483631,225.05340773216423 787,238 C 837.2469737516369,250.94659226783577 896.8692307692306,332.076923076923 962,339 C 1027.1307692307694,345.923076923077 1097.770050674714,278.6388999601435 1148,299 C 1198.229949325286,319.3611000398565 1228.0505665319135,427.36747708250294 1280,430 C 1331.9494334680865,432.63252291749706 1406.0276831976316,329.8911917098445 1455,288 C 1503.9723168023684,246.10880829015545 1527.8387006775606,265.0677560781188 1580,275 C 1632.1612993224394,284.9322439218812 1712.6175140921257,285.8377839776804 1774,293 C 1835.3824859078743,300.1622160223196 1877.691242953937,313.5811080111598 1920,327 C 1920,327 1920,819 1920,819 Z" stroke="none" stroke-width="0" fill="url(#radial-gradient)" class="transition-all duration-300 ease-in-out delay-150"/><defs><radialGradient id="radial-gradient" cx="0.5" cy="0.75" r="0.55"><stop offset="0%" stop-color="#ff932e80"/><stop offset="100%" stop-color="#ffbc4780"/></radialGradient></defs><path transform="scale(1, 1)" style="transform-origin:center" d="M 0,819 V 0,491 C 49.20229459659511,429.4652289851772 98.40458919319022,367.9304579703543 160,392 C 221.59541080680978,416.0695420296457 295.5839378238342,525.7433971037598 349,571 C 402.4160621761658,616.2566028962402 435.25965951147293,597.0959536146064 472,586 C 508.74034048852707,574.9040463853936 549.377424130274,571.8727884378143 613,545 C 676.622575869726,518.1272115621857 763.2306439674314,467.4128926341362 813,437 C 862.7693560325686,406.5871073658638 875.7,396.4756410256409 931,431 C 986.3,465.5243589743591 1083.9693560325684,544.6845432632998 1146,564 C 1208.0306439674316,583.3154567367002 1234.4225758697264,542.7861859211599 1282,490 C 1329.5774241302736,437.2138140788401 1398.340340488527,372.17071305206025 1457,402 C 1515.659659511473,431.82928694793975 1564.216062176166,556.5309618705992 1607,568 C 1649.783937823834,579.4690381294008 1686.7954108068097,477.7054394655431 1738,446 C 1789.2045891931903,414.2945605344569 1854.6022945965951,452.64728026722844 1920,491 C 1920,491 1920,819 1920,819 Z" stroke="none" stroke-width="0" fill="url(#radial-gradient)" class="transition-all duration-300 ease-in-out delay-150"/><defs><radialGradient id="radial-gradient" cx="0.5" cy="0.75" r="0.55"><stop offset="0%" stop-color="#ff932e90"/><stop offset="100%" stop-color="#ffbc4790"/></radialGradient></defs><path transform="scale(1, 1)" d="M 0,819 V 0,737 C 42.06356070527055,773.957793846913 84.1271214105411,810.915587693826 130,830 C 175.8728785894589,849.084412306174 225.5550750631062,850.2954430716088 291,826 C 356.4449249368938,801.7045569283912 437.65257833703436,751.9026400197386 503,740 C 568.3474216629656,728.0973599802614 617.8346115887567,754.0939968494372 668,772 C 718.1653884112433,789.9060031505628 769.008975307939,799.7213725825126 821,771 C 872.991024692061,742.2786274174874 926.1294871794873,675.0205128205127 981,663 C 1035.8705128205127,650.9794871794873 1092.4730759741121,694.1965761354362 1135,723 C 1177.5269240258879,751.8034238645638 1205.978208924064,766.1931826377422 1257,744 C 1308.021791075936,721.8068173622578 1381.6140883296325,663.0306933135948 1443,683 C 1504.3859116703675,702.9693066864052 1553.5654377574067,801.6840441078783 1600,793 C 1646.4345622425933,784.3159558921217 1690.1241606407411,668.233130254892 1743,641 C 1795.8758393592589,613.766869745108 1857.9379196796294,675.3834348725541 1920,737 C 1920,737 1920,819 1920,819 Z" stroke="none" stroke-width="0" fill="url(#radial-gradient)" class="transition-all duration-300 ease-in-out delay-150" style="transform-origin: center center;"/><defs><radialGradient id="radial-gradient" cx="0.5" cy="0.75" r="0.55"><stop offset="0%" stop-color="#ff932eff"/><stop offset="100%" stop-color="#ffbc47ff"/></radialGradient></defs><path transform="scale(1, 1)" d="M 0,819 V 0,1105 C 52.767918351078976,1149.6040321509236 105.53583670215795,1194.208064301847 165,1221 C 224.46416329784205,1247.791935698153 290.62457154244714,1256.7717749435365 345,1219 C 399.37542845755286,1181.2282250564635 441.9658771280532,1096.7048359240068 481,1056 C 520.0341228719468,1015.2951640759932 555.5119199453396,1018.4088813604358 614,1032 C 672.4880800546604,1045.5911186395642 753.9864430905882,1069.65963863425 811,1115 C 868.0135569094118,1160.34036136575 900.5423076923076,1226.952564102564 944,1219 C 987.4576923076924,1211.047435897436 1041.8443261401812,1128.5301049554935 1094,1106 C 1146.1556738598188,1083.4698950445065 1196.0803877469677,1120.9270160754618 1251,1155 C 1305.9196122530323,1189.0729839245382 1365.8341228719469,1219.7618307426596 1430,1183 C 1494.1658771280531,1146.2381692573404 1562.583120765245,1042.0256609538992 1612,1041 C 1661.416879234755,1039.9743390461008 1691.833394067073,1142.135525441743 1740,1170 C 1788.166605932927,1197.864474558257 1854.0833029664636,1151.4322372791285 1920,1105 C 1920,1105 1920,819 1920,819 Z" stroke="none" stroke-width="0" fill="url(#radial-gradient)" class="transition-all duration-300 ease-in-out delay-150" style="transform-origin: center center;"/></svg>